HIERARCHY
ROOT Hips
{
	OFFSET 0.000000 0.000000 0.000000 
	CHANNELS 6 Xposition Yposition Zposition Zrotation Yrotation Xrotation
	JOINT LeftUpLeg
	{
		OFFSET 1.363060 -1.794630 0.839290 
		CHANNELS 3 Zrotation Yrotation Xrotation
		JOINT LeftLeg
		{
			OFFSET 2.448110 -6.726130 0.000000 
			CHANNELS 3 Zrotation Yrotation Xrotation
			JOINT LeftFoot
			{
				OFFSET 2.562200 -7.039590 0.000000 
				CHANNELS 3 Zrotation Yrotation Xrotation
				JOINT LeftToeBase
				{
					OFFSET 0.157640 -0.433110 2.322550 
					CHANNELS 3 Zrotation Yrotation Xrotation
					End Site
					{
						OFFSET 0.000000 0.000000 0.000000 
					}
				}
			}
		}
	}
	JOINT RightUpLeg
	{
		OFFSET -1.305520 -1.794630 0.839290 
		CHANNELS 3 Zrotation Yrotation Xrotation
		JOINT RightLeg
		{
			OFFSET -2.542530 -6.985550 0.000000 
			CHANNELS 3 Zrotation Yrotation Xrotation
			JOINT RightFoot
			{
				OFFSET -2.568260 -7.056230 0.000000 
				CHANNELS 3 Zrotation Yrotation Xrotation
				JOINT RightToeBase
				{
					OFFSET -0.164730 -0.452590 2.363150 
					CHANNELS 3 Zrotation Yrotation Xrotation
					End Site
					{
						OFFSET 0.000000 0.000000 0.000000 
					}
				}
			}
		}
	}
	JOINT Spine
	{
		OFFSET 0.028270 2.035590 -0.193380 
		CHANNELS 3 Zrotation Yrotation Xrotation
		JOINT Spine1
		{
			OFFSET 0.056720 2.048850 -0.042750 
			CHANNELS 3 Zrotation Yrotation Xrotation
			JOINT Neck1
			{
				OFFSET -0.054170 1.746240 0.172020 
				CHANNELS 3 Zrotation Yrotation Xrotation
				JOINT Head
				{
					OFFSET 0.104070 1.761360 -0.123970 
					CHANNELS 3 Zrotation Yrotation Xrotation
					End Site
					{
						OFFSET 0.000000 0.000000 0.000000 
					}
				}
			}
			JOINT LeftArm
			{
				OFFSET 3.362410 1.200890 -0.311210 
				CHANNELS 3 Zrotation Yrotation Xrotation
				JOINT LeftForeArm
				{
					OFFSET 4.983000 -0.000000 -0.000000 
					CHANNELS 3 Zrotation Yrotation Xrotation
					JOINT LeftHand
					{
						OFFSET 3.483560 -0.000000 -0.000000 
						CHANNELS 3 Zrotation Yrotation Xrotation
						JOINT LeftHandIndex1
						{
							OFFSET 0.715260 -0.000000 -0.000000 
							CHANNELS 3 Zrotation Yrotation Xrotation
							End Site
							{
								OFFSET 0.000000 0.000000 0.000000 
							}
						}
					}
				}
			}
			JOINT RightArm
			{
				OFFSET -3.136600 1.374050 -0.404650 
				CHANNELS 3 Zrotation Yrotation Xrotation
				JOINT RightForeArm
				{
					OFFSET -5.241900 -0.000000 -0.000000 
					CHANNELS 3 Zrotation Yrotation Xrotation
					JOINT RightHand
					{
						OFFSET -3.444170 -0.000000 -0.000000 
						CHANNELS 3 Zrotation Yrotation Xrotation
						JOINT RightHandIndex1
						{
							OFFSET -0.622530 -0.000000 -0.000000 
							CHANNELS 3 Zrotation Yrotation Xrotation
							End Site
							{
								OFFSET 0.000000 0.000000 0.000000 
							}
						}
					}
				}
			}
		}
	}
}
MOTION
Frames: 6
Frame Time: 0.041667
-39.645247 17.440364 -5.295843 -93.023074 87.159645 -96.338006 -20.639046 5.681089 5.320655 0.675787 4.801777 14.639156 0.383520 0.515473 -10.289224 0.044900 -1.367300 -3.760100 28.512867 5.098508 -1.588116 -2.661269 -10.585151 30.917286 -0.379161 -5.847011 -20.730656 -0.159800 -2.575700 7.099700 1.061475 -0.717849 0.017253 -3.439911 -0.246774 5.070422 6.497717 -2.146756 11.881415 0.317500 -0.503300 5.689400 -78.505988 2.994221 24.598297 12.491032 -23.187775 -3.587487 -1.016738 -1.111731 -19.789360 -7.125000 0.000000 0.000000 78.687364 -5.215949 26.957310 -15.124316 26.996402 -4.321992 0.854140 0.044666 -0.243057 7.125000 0.000000 0.000000 
-39.646577 17.440671 -5.295639 -91.906847 87.094074 -95.241260 -20.561419 5.700482 5.324473 0.682048 4.815220 14.682538 0.384821 0.533027 -10.352875 0.043600 -1.347800 -3.706400 28.591514 5.107158 -1.555981 -2.653336 -10.573781 30.878866 -0.375611 -5.845485 -20.697892 -0.161500 -2.589300 7.137400 1.068355 -0.701450 0.013052 -3.447659 -0.237730 5.038101 6.490397 -2.138422 11.856995 0.313500 -0.501400 5.670600 -78.535950 3.023181 24.618229 12.498836 -23.197385 -3.590838 -1.017808 -1.112392 -19.782615 -7.125000 0.000000 0.000000 78.670128 -5.240981 26.943050 -15.098324 26.967466 -4.311936 0.854176 0.034358 -0.189626 7.125000 0.000000 0.000000 
-39.647191 17.440364 -5.296150 -92.055262 87.114660 -95.405521 -20.598830 5.651200 5.359405 0.681712 4.813967 14.679536 0.383395 0.553301 -10.379748 0.042300 -1.328000 -3.651900 28.551362 5.064748 -1.540491 -2.651217 -10.567677 30.863707 -0.383009 -5.796868 -20.681997 -0.165200 -2.618700 7.219000 1.063118 -0.708059 0.014679 -3.468594 -0.239655 5.052185 6.492472 -2.142896 11.879807 0.312700 -0.500800 5.695400 -78.535382 3.038855 24.635654 12.513796 -23.214673 -3.596260 -1.017574 -1.112788 -19.778937 -7.125000 0.000000 0.000000 78.674757 -5.234945 26.923258 -15.081895 26.950428 -4.306280 0.855624 0.036776 -0.169569 7.125000 0.000000 0.000000 
-39.648624 17.441080 -5.295025 -92.507677 87.105482 -95.850666 -20.583425 5.649131 5.335414 0.682524 4.817927 14.689024 0.382373 0.546591 -10.347643 0.043900 -1.352900 -3.720300 28.567123 5.061035 -1.541843 -2.646861 -10.561433 30.842754 -0.387226 -5.799442 -20.725001 -0.170000 -2.656100 7.322900 1.066509 -0.721198 0.016977 -3.454411 -0.246721 5.066521 6.478207 -2.147293 11.871608 0.302600 -0.504100 5.691200 -78.555423 3.014067 24.621664 12.510790 -23.212160 -3.597350 -1.019546 -1.115573 -19.780329 -7.125000 0.000000 0.000000 78.664772 -5.233891 26.926060 -14.993441 26.847576 -4.265864 0.844710 -0.012594 0.160650 7.125000 0.000000 0.000000 
-39.649954 17.441387 -5.294411 -92.585941 87.090968 -95.932139 -20.565773 5.642396 5.337609 0.682430 4.816698 14.686521 0.380920 0.552459 -10.338608 0.044500 -1.361800 -3.744900 28.584084 5.055101 -1.534959 -2.643659 -10.556622 30.827060 -0.390250 -5.789495 -20.735259 -0.173200 -2.680800 7.391300 1.068036 -0.726696 0.017565 -3.455332 -0.249085 5.071234 6.474762 -2.148352 11.872008 0.299200 -0.504400 5.695400 -78.567243 3.008307 24.623414 12.512981 -23.214573 -3.598941 -1.020475 -1.116728 -19.782221 -7.125000 0.000000 0.000000 78.658493 -5.240393 26.932030 -14.912743 26.755856 -4.231087 0.836758 -0.050237 0.447245 7.125000 0.000000 0.000000 
-39.651387 17.441694 -5.293694 -92.692842 87.074665 -96.039107 -20.545445 5.633814 5.326702 0.683803 4.820770 14.698090 0.380523 0.552216 -10.331642 0.045300 -1.373600 -3.777300 28.605043 5.053706 -1.528655 -2.639752 -10.550908 30.808065 -0.392420 -5.784948 -20.746714 -0.176200 -2.704000 7.455800 1.069885 -0.733499 0.018359 -3.453782 -0.252307 5.077122 6.478857 -2.146964 11.869952 0.301300 -0.503600 5.698600 -78.578072 2.996469 24.620811 12.513110 -23.214168 -3.599666 -1.021292 -1.117798 -19.786847 -7.125000 0.000000 0.000000 78.650589 -5.243378 26.942612 -14.826508 26.658065 -4.194832 0.827885 -0.089583 0.760812 7.125000 0.000000 0.000000 
